<svg width="298" height="215" viewBox="0 0 298 215" fill="none" xmlns="http://www.w3.org/2000/svg">
<rect width="298" height="215" fill="black" fill-opacity="0.1"/>
<rect x="125" y="84" width="48" height="48" rx="24" fill="white"/>
<path d="M147.242 114.472C142.697 114.472 139 110.777 139 106.236C139 101.695 142.697 98 147.242 98C151.787 98 155.484 101.695 155.484 106.236C155.484 110.777 151.787 114.472 147.242 114.472V114.472ZM147.242 99.5613C143.559 99.5613 140.562 102.555 140.562 106.236C140.562 109.916 143.559 112.91 147.242 112.91C150.925 112.91 153.922 109.916 153.922 106.236C153.922 102.555 150.925 99.5613 147.242 99.5613V99.5613ZM158.771 117.771C159.076 117.466 159.076 116.972 158.771 116.667L155.275 113.174C154.97 112.869 154.475 112.869 154.17 113.174C153.865 113.479 153.865 113.973 154.17 114.278L157.666 117.771C157.819 117.924 158.019 118 158.219 118C158.419 118 158.619 117.924 158.771 117.771V117.771Z" fill="#63A60E"/>
</svg>
